<svg id="Layer_1" data-name="Layer 1" xmlns="http://www.w3.org/2000/svg" viewBox="0 0 121.55 69.6"><title>ors-logo</title><path d="M49.65,11.48c-11.57-2.26-15.1,15.82-15.16,24-.14,16.64,15.58,28.49,31.07,30,9.54.94,22.18-2,28.47-9.65,11-13.48-2.13-31.55-13.8-39.54C69.87,9.23,56.55,6,44.47,10.12c.68-.23,1.94-.45,2.8-.74,5.93-2,14.82.47,20.38,2.62A47.29,47.29,0,0,1,84.58,23.21C94.83,33.84,100.94,51.53,86,61.13c-13.21,8.5-32.47,2.25-42.09-8.91A26.53,26.53,0,0,1,37.6,31.37c.68-6.15,2.93-17.29,9.34-20l-2.9.78a4.29,4.29,0,0,1,2.72.09c.89.17,2-.95,2.9-.78Z" transform="translate(-34.49 -8.31)"/><path d="M108.69,38.89l-.47,20.41,2.9-.78c-1.3-8.27,2-16.06,10.21-18.94l-2.84.77c6.19-1.42,12.31,1.05,18.62-.53A62.24,62.24,0,0,0,143.18,38c.76-.28,7.34-2.5,3.64-2a13.5,13.5,0,0,0-1.79.47c-3.74,1.07-5.37,4-5.08,7.92.42,5.7,8.51,3.55,11.75,7.32,4.67,5.42-3.43,10.3-7.5,12.31-16,7.89-34.09,11.66-51.76,13.14-1,.08-1.92.69-2.9.78a182.36,182.36,0,0,0,46.79-10.27c5-1.81,24.39-7.78,18.64-16.21-2.7-4-8.35-2.08-11.25-5.06s0-9,3.14-10.39l-2.9.78c3.15-.18-.24.63-1.1,1a26.88,26.88,0,0,1-6.59,2.06c-3,.39-5.74-.18-8.67-.5a20,20,0,0,0-7.95.71c-8.84,2.48-12.85,10.44-11.46,19.29,0-.14,2.89-.56,2.9-.78l.47-20.41c0,.26-2.89.47-2.9.78Z" transform="translate(-34.49 -8.31)"/></svg>